<?xml version="1.0" encoding="utf-8"?>
<!-- Generator: Adobe Illustrator 24.2.0, SVG Export Plug-In . SVG Version: 6.00 Build 0)  -->
<svg version="1.1" id="Layer_1" xmlns="http://www.w3.org/2000/svg" xmlns:xlink="http://www.w3.org/1999/xlink" x="0px" y="0px"
	 viewBox="0 0 595.28 841.89" style="enable-background:new 0 0 595.28 841.89;" xml:space="preserve">
<style type="text/css">
	.st0{fill:none;stroke:#000000;stroke-miterlimit:10;}
</style>
<g>
	<path d="M37.54,30.19c3.61,0,6.92,0.62,9.93,1.85c3.01,1.23,5.6,2.94,7.79,5.13s3.9,4.8,5.13,7.84s1.85,6.37,1.85,9.98
		s-0.62,6.94-1.85,9.98s-2.94,5.65-5.13,7.84s-4.78,3.9-7.79,5.13c-3.01,1.23-6.32,1.85-9.93,1.85c-3.61,0-6.92-0.62-9.93-1.85
		c-3.01-1.23-5.6-2.94-7.79-5.13s-3.9-4.8-5.13-7.84c-1.24-3.04-1.85-6.37-1.85-9.98s0.62-6.94,1.85-9.98
		c1.23-3.04,2.94-5.65,5.13-7.84s4.78-3.9,7.79-5.13C30.62,30.8,33.93,30.19,37.54,30.19z M37.54,68.28c1.58,0,3.12-0.3,4.61-0.9
		c1.49-0.6,2.8-1.47,3.94-2.61c1.14-1.14,2.04-2.53,2.71-4.18c0.67-1.65,1-3.52,1-5.6c0-2.09-0.33-3.96-1-5.6
		c-0.67-1.65-1.57-3.04-2.71-4.18c-1.14-1.14-2.46-2.01-3.94-2.61c-1.49-0.6-3.02-0.9-4.61-0.9c-1.65,0-3.2,0.3-4.65,0.9
		c-1.46,0.6-2.75,1.47-3.9,2.61s-2.04,2.53-2.71,4.18c-0.67,1.65-1,3.51-1,5.6c0,2.09,0.33,3.96,1,5.6
		c0.67,1.65,1.57,3.04,2.71,4.18c1.14,1.14,2.44,2.01,3.9,2.61C34.34,67.98,35.89,68.28,37.54,68.28z"/>
	<path d="M65.46,10.24h12.45v37.05h0.57l15.58-15.58h15.39v0.76L92.16,49.28l18.71,28.22v0.76H96.15L83.42,57.83l-5.51,5.42v15.01
		H65.46V10.24z"/>
	<path d="M155.19,67.05c-2.15,3.8-5.05,6.87-8.69,9.21c-3.64,2.34-8.09,3.52-13.35,3.52c-3.55,0-6.83-0.62-9.83-1.85
		c-3.01-1.23-5.62-2.96-7.84-5.18c-2.22-2.22-3.94-4.83-5.18-7.84c-1.24-3.01-1.85-6.32-1.85-9.93c0-3.36,0.6-6.54,1.8-9.55
		c1.2-3.01,2.88-5.64,5.04-7.89c2.15-2.25,4.7-4.04,7.65-5.37c2.94-1.33,6.19-1.99,9.74-1.99c3.74,0,7.06,0.62,9.98,1.85
		c2.91,1.23,5.35,2.94,7.31,5.13c1.96,2.19,3.45,4.77,4.47,7.74c1.01,2.98,1.52,6.21,1.52,9.69c0,0.44,0,0.82,0,1.14
		c-0.06,0.38-0.1,0.73-0.1,1.04c-0.06,0.32-0.09,0.67-0.09,1.05H120.7c0.25,1.9,0.77,3.53,1.57,4.89c0.79,1.36,1.77,2.5,2.95,3.42
		c1.17,0.92,2.45,1.58,3.85,1.99c1.39,0.41,2.82,0.62,4.27,0.62c2.85,0,5.21-0.65,7.08-1.95c1.87-1.3,3.34-2.93,4.42-4.89
		L155.19,67.05z M143.88,49c-0.06-0.82-0.33-1.74-0.81-2.76c-0.48-1.01-1.17-1.96-2.09-2.85c-0.92-0.89-2.06-1.61-3.42-2.18
		c-1.36-0.57-2.99-0.85-4.89-0.85c-2.66,0-5,0.76-7.03,2.28c-2.03,1.52-3.45,3.64-4.27,6.37H143.88z"/>
	<path d="M196.04,23.27v7.39v6.65l0,0c-1.14-1.96-2.91-3.64-5.32-5.04c-2.41-1.39-5.38-2.09-8.93-2.09c-2.98,0-5.81,0.62-8.5,1.85
		c-2.69,1.23-5.07,2.94-7.12,5.13c-2.06,2.19-3.69,4.8-4.89,7.84c-1.2,3.04-1.8,6.37-1.8,9.98s0.6,6.94,1.8,9.98
		c1.2,3.04,2.83,5.65,4.89,7.84c2.06,2.19,4.43,3.9,7.12,5.13c2.69,1.23,5.52,1.85,8.5,1.85c3.55,0,6.52-0.7,8.93-2.09
		c2.41-1.39,4.18-3.07,5.32-5.04h0.76v5.6h11.69V23.27C204.34,23.27,200.18,23.27,196.04,23.27z M195.75,60.59
		c-0.7,1.65-1.62,3.04-2.76,4.18c-1.14,1.14-2.46,2.01-3.94,2.61c-1.49,0.6-3.06,0.9-4.7,0.9c-1.65,0-3.21-0.32-4.7-0.95
		c-1.49-0.63-2.8-1.52-3.94-2.66c-1.14-1.14-2.06-2.53-2.75-4.18c-0.7-1.65-1.04-3.48-1.04-5.51c0-2.03,0.35-3.86,1.04-5.51
		c0.7-1.65,1.62-3.04,2.75-4.18c1.14-1.14,2.45-2.03,3.94-2.66c1.49-0.63,3.05-0.95,4.7-0.95c1.65,0,3.21,0.3,4.7,0.9
		c1.49,0.6,2.8,1.47,3.94,2.61c1.14,1.14,2.06,2.53,2.76,4.18c0.7,1.65,1.04,3.51,1.04,5.6C196.8,57.07,196.45,58.94,195.75,60.59z"
		/>
	<path d="M237.41,30.19c3.61,0,6.92,0.62,9.93,1.85c3.01,1.23,5.61,2.94,7.79,5.13c2.19,2.19,3.9,4.8,5.13,7.84
		c1.24,3.04,1.85,6.37,1.85,9.98s-0.62,6.94-1.85,9.98c-1.23,3.04-2.94,5.65-5.13,7.84c-2.18,2.19-4.78,3.9-7.79,5.13
		c-3.01,1.23-6.32,1.85-9.93,1.85c-3.61,0-6.92-0.62-9.93-1.85c-3.01-1.23-5.61-2.94-7.79-5.13c-2.19-2.19-3.9-4.8-5.13-7.84
		c-1.24-3.04-1.85-6.37-1.85-9.98s0.62-6.94,1.85-9.98c1.23-3.04,2.94-5.65,5.13-7.84c2.18-2.19,4.78-3.9,7.79-5.13
		C230.49,30.8,233.8,30.19,237.41,30.19z M237.41,68.28c1.58,0,3.12-0.3,4.61-0.9c1.49-0.6,2.8-1.47,3.94-2.61
		c1.14-1.14,2.04-2.53,2.71-4.18c0.67-1.65,1-3.52,1-5.6c0-2.09-0.33-3.96-1-5.6c-0.67-1.65-1.57-3.04-2.71-4.18
		c-1.14-1.14-2.46-2.01-3.94-2.61c-1.49-0.6-3.03-0.9-4.61-0.9c-1.65,0-3.2,0.3-4.66,0.9c-1.46,0.6-2.75,1.47-3.9,2.61
		c-1.14,1.14-2.04,2.53-2.71,4.18c-0.67,1.65-1,3.51-1,5.6c0,2.09,0.33,3.96,1,5.6c0.67,1.65,1.57,3.04,2.71,4.18
		c1.14,1.14,2.44,2.01,3.9,2.61C234.21,67.98,235.76,68.28,237.41,68.28z"/>
</g>
<circle class="st0" cx="266.13" cy="36.47" r="4.08"/>
<g>
	<g>
		<path d="M264.82,34.31h1.45c0.85,0,1.55,0.3,1.55,1.25c0,0.92-0.7,1.32-1.55,1.32h-0.54v1.45h-0.91V34.31z M266.19,36.16
			c0.48,0,0.73-0.21,0.73-0.6c0-0.4-0.26-0.53-0.73-0.53h-0.46v1.13H266.19z M266.1,36.64l0.63-0.58l1.28,2.27H267L266.1,36.64z"/>
	</g>
</g>
</svg>
