<?xml version="1.0" encoding="utf-8"?>
<!-- Generator: Adobe Illustrator 24.2.0, SVG Export Plug-In . SVG Version: 6.00 Build 0)  -->
<svg version="1.1" id="Layer_1" xmlns="http://www.w3.org/2000/svg" xmlns:xlink="http://www.w3.org/1999/xlink" x="0px" y="0px"
	 viewBox="0 0 160 60" style="enable-background:new 0 0 160 60;" xml:space="preserve">
<style type="text/css">
	.st0{clip-path:url(#SVGID_2_);}
	.st1{clip-path:url(#SVGID_2_);fill:none;stroke:#231F20;stroke-miterlimit:10;}
</style>
<g>
	<defs>
		<rect id="SVGID_1_" x="3.48" y="11.97" width="153.2" height="40.1"/>
	</defs>
	<clipPath id="SVGID_2_">
		<use xlink:href="#SVGID_1_"  style="overflow:visible;"/>
	</clipPath>
	<g class="st0">
		<path d="M24.87,22.99c1.95,0,3.74,0.33,5.36,1c1.62,0.67,3.03,1.59,4.21,2.77c1.18,1.18,2.1,2.59,2.77,4.23s1,3.44,1,5.39
			c0,1.95-0.33,3.75-1,5.39s-1.59,3.05-2.77,4.23c-1.18,1.18-2.58,2.1-4.21,2.77c-1.63,0.67-3.41,1-5.36,1c-1.95,0-3.74-0.33-5.36-1
			c-1.63-0.67-3.03-1.59-4.21-2.77c-1.18-1.18-2.1-2.59-2.77-4.23c-0.67-1.64-1-3.44-1-5.39c0-1.95,0.33-3.75,1-5.39
			c0.67-1.64,1.59-3.05,2.77-4.23c1.18-1.18,2.58-2.1,4.21-2.77C21.13,23.33,22.92,22.99,24.87,22.99z M24.87,43.57
			c0.85,0,1.68-0.16,2.49-0.49c0.8-0.32,1.51-0.8,2.13-1.41c0.62-0.62,1.1-1.37,1.46-2.26c0.36-0.89,0.54-1.9,0.54-3.03
			c0-1.13-0.18-2.14-0.54-3.03c-0.36-0.89-0.85-1.64-1.46-2.26c-0.62-0.62-1.33-1.09-2.13-1.41c-0.8-0.32-1.63-0.49-2.49-0.49
			c-0.89,0-1.73,0.16-2.51,0.49c-0.79,0.33-1.49,0.8-2.1,1.41c-0.62,0.62-1.1,1.37-1.46,2.26c-0.36,0.89-0.54,1.9-0.54,3.03
			c0,1.13,0.18,2.14,0.54,3.03c0.36,0.89,0.85,1.64,1.46,2.26c0.62,0.62,1.32,1.09,2.1,1.41C23.14,43.41,23.98,43.57,24.87,43.57z"
			/>
		<path d="M39.95,12.21h6.72v20.02h0.31l8.42-8.42h8.31v0.41l-9.34,9.08l10.11,15.24v0.41h-7.96l-6.88-11.03l-2.98,2.93v8.11h-6.72
			V12.21z"/>
		<path d="M88.43,42.91c-1.16,2.05-2.73,3.71-4.7,4.98c-1.97,1.27-4.37,1.9-7.21,1.9c-1.92,0-3.69-0.33-5.31-1
			c-1.63-0.67-3.04-1.6-4.23-2.8c-1.2-1.2-2.13-2.61-2.8-4.23c-0.67-1.62-1-3.41-1-5.36c0-1.81,0.32-3.53,0.98-5.16
			c0.65-1.63,1.56-3.05,2.72-4.26c1.16-1.21,2.54-2.18,4.13-2.9c1.59-0.72,3.34-1.08,5.26-1.08c2.02,0,3.82,0.33,5.39,1
			c1.57,0.67,2.89,1.59,3.95,2.77c1.06,1.18,1.86,2.57,2.41,4.18c0.55,1.61,0.82,3.35,0.82,5.24c0,0.24,0,0.45,0,0.62
			c-0.03,0.21-0.05,0.39-0.05,0.56c-0.03,0.17-0.05,0.36-0.05,0.56H69.8c0.14,1.03,0.42,1.91,0.85,2.64
			c0.43,0.74,0.96,1.35,1.59,1.85c0.63,0.5,1.33,0.86,2.08,1.08c0.75,0.22,1.52,0.33,2.31,0.33c1.54,0,2.81-0.35,3.82-1.05
			c1.01-0.7,1.8-1.58,2.39-2.64L88.43,42.91z M82.32,33.16c-0.03-0.44-0.18-0.94-0.44-1.49c-0.26-0.55-0.63-1.06-1.13-1.54
			c-0.5-0.48-1.11-0.87-1.85-1.18c-0.74-0.31-1.62-0.46-2.64-0.46c-1.44,0-2.7,0.41-3.8,1.23c-1.1,0.82-1.87,1.97-2.31,3.44H82.32z"
			/>
		<path d="M110.5,19.26v3.99v3.59l0,0c-0.62-1.06-1.57-1.97-2.87-2.72c-1.3-0.75-2.91-1.13-4.82-1.13c-1.61,0-3.14,0.33-4.59,1
			c-1.45,0.67-2.74,1.59-3.85,2.77c-1.11,1.18-1.99,2.59-2.64,4.23c-0.65,1.64-0.98,3.44-0.98,5.39c0,1.95,0.32,3.75,0.98,5.39
			c0.65,1.64,1.53,3.05,2.64,4.23c1.11,1.18,2.39,2.1,3.85,2.77c1.45,0.67,2.98,1,4.59,1c1.92,0,3.52-0.38,4.82-1.13
			c1.3-0.75,2.26-1.66,2.87-2.72h0.41v3.03h6.31V19.26C114.98,19.26,112.73,19.26,110.5,19.26z M110.34,39.42
			c-0.38,0.89-0.87,1.64-1.49,2.26c-0.62,0.62-1.33,1.09-2.13,1.41c-0.8,0.33-1.65,0.49-2.54,0.49c-0.89,0-1.74-0.17-2.54-0.51
			c-0.8-0.34-1.51-0.82-2.13-1.44c-0.62-0.62-1.11-1.37-1.49-2.26c-0.38-0.89-0.56-1.88-0.56-2.98c0-1.09,0.19-2.09,0.56-2.98
			c0.38-0.89,0.87-1.64,1.49-2.26c0.62-0.62,1.33-1.09,2.13-1.44c0.8-0.34,1.65-0.51,2.54-0.51c0.89,0,1.74,0.16,2.54,0.49
			c0.8,0.33,1.51,0.8,2.13,1.41c0.62,0.62,1.11,1.37,1.49,2.26c0.38,0.89,0.56,1.9,0.56,3.03
			C110.91,37.52,110.72,38.53,110.34,39.42z"/>
		<path d="M132.85,22.99c1.95,0,3.74,0.33,5.36,1c1.63,0.67,3.03,1.59,4.21,2.77c1.18,1.18,2.1,2.59,2.77,4.23
			c0.67,1.64,1,3.44,1,5.39c0,1.95-0.33,3.75-1,5.39c-0.67,1.64-1.59,3.05-2.77,4.23c-1.18,1.18-2.58,2.1-4.21,2.77
			c-1.63,0.67-3.41,1-5.36,1c-1.95,0-3.74-0.33-5.36-1c-1.63-0.67-3.03-1.59-4.21-2.77c-1.18-1.18-2.1-2.59-2.77-4.23
			c-0.67-1.64-1-3.44-1-5.39c0-1.95,0.33-3.75,1-5.39c0.67-1.64,1.59-3.05,2.77-4.23c1.18-1.18,2.58-2.1,4.21-2.77
			C129.11,23.33,130.9,22.99,132.85,22.99z M132.85,43.57c0.85,0,1.68-0.16,2.49-0.49c0.8-0.32,1.51-0.8,2.13-1.41
			c0.62-0.62,1.1-1.37,1.46-2.26c0.36-0.89,0.54-1.9,0.54-3.03c0-1.13-0.18-2.14-0.54-3.03c-0.36-0.89-0.85-1.64-1.46-2.26
			c-0.62-0.62-1.33-1.09-2.13-1.41c-0.8-0.32-1.63-0.49-2.49-0.49c-0.89,0-1.73,0.16-2.52,0.49c-0.79,0.33-1.49,0.8-2.1,1.41
			c-0.62,0.62-1.1,1.37-1.46,2.26c-0.36,0.89-0.54,1.9-0.54,3.03c0,1.13,0.18,2.14,0.54,3.03c0.36,0.89,0.85,1.64,1.46,2.26
			c0.62,0.62,1.32,1.09,2.1,1.41C131.12,43.41,131.96,43.57,132.85,43.57z"/>
	</g>
	<circle class="st1" cx="148.37" cy="26.39" r="2.2"/>
	<g class="st0">
		<path d="M147.66,25.22h0.78c0.46,0,0.84,0.16,0.84,0.68c0,0.5-0.38,0.71-0.84,0.71h-0.29v0.78h-0.49V25.22z M148.4,26.22
			c0.26,0,0.4-0.11,0.4-0.32c0-0.21-0.14-0.29-0.4-0.29h-0.25v0.61H148.4z M148.35,26.48l0.34-0.31l0.69,1.22h-0.55L148.35,26.48z"
			/>
	</g>
</g>
</svg>
