<?xml version="1.0" encoding="utf-8"?>
<!-- Generator: Adobe Illustrator 24.2.0, SVG Export Plug-In . SVG Version: 6.00 Build 0)  -->
<svg version="1.1" id="Layer_1" xmlns="http://www.w3.org/2000/svg" xmlns:xlink="http://www.w3.org/1999/xlink" x="0px" y="0px"
	 viewBox="0 0 160 60" style="enable-background:new 0 0 160 60;" xml:space="preserve">
<style type="text/css">
	.st0{fill:#231F20;}
	.st1{fill:none;stroke:#231F20;stroke-miterlimit:10;}
</style>
<g>
	<path class="st0" d="M17.65,18.97c2.18,0,4.18,0.37,6,1.12c1.82,0.75,3.39,1.78,4.71,3.1c1.32,1.32,2.35,2.9,3.1,4.74
		s1.12,3.85,1.12,6.03c0,2.18-0.37,4.19-1.12,6.03s-1.78,3.42-3.1,4.74c-1.32,1.32-2.89,2.35-4.71,3.1c-1.82,0.75-3.82,1.12-6,1.12
		c-2.18,0-4.18-0.37-6-1.12c-1.82-0.75-3.39-1.78-4.71-3.1c-1.32-1.32-2.35-2.9-3.1-4.74c-0.75-1.84-1.12-3.85-1.12-6.03
		c0-2.18,0.37-4.19,1.12-6.03c0.75-1.84,1.78-3.42,3.1-4.74c1.32-1.32,2.89-2.35,4.71-3.1C13.47,19.34,15.47,18.97,17.65,18.97z
		 M17.65,41.99c0.96,0,1.88-0.18,2.78-0.55c0.9-0.36,1.69-0.89,2.38-1.58c0.69-0.69,1.23-1.53,1.64-2.53c0.4-1,0.6-2.12,0.6-3.39
		c0-1.26-0.2-2.39-0.6-3.39c-0.4-1-0.95-1.84-1.64-2.53c-0.69-0.69-1.48-1.21-2.38-1.58c-0.9-0.36-1.83-0.55-2.78-0.55
		c-1,0-1.93,0.18-2.81,0.55c-0.88,0.36-1.66,0.89-2.35,1.58s-1.23,1.53-1.64,2.53c-0.4,1-0.6,2.12-0.6,3.39
		c0,1.26,0.2,2.39,0.6,3.39c0.4,1,0.95,1.84,1.64,2.53c0.69,0.69,1.47,1.22,2.35,1.58C15.72,41.81,16.66,41.99,17.65,41.99z"/>
	<path class="st0" d="M34.53,6.91h7.52V29.3h0.34l9.42-9.42h9.3v0.46L50.66,30.5l11.31,17.05v0.46h-8.9l-7.69-12.34l-3.33,3.27v9.07
		h-7.52V6.91z"/>
	<path class="st0" d="M88.75,41.24c-1.3,2.3-3.05,4.15-5.25,5.57c-2.2,1.42-4.89,2.12-8.07,2.12c-2.14,0-4.12-0.37-5.94-1.12
		c-1.82-0.75-3.4-1.79-4.74-3.13c-1.34-1.34-2.38-2.92-3.13-4.74c-0.75-1.82-1.12-3.82-1.12-6c0-2.03,0.36-3.95,1.09-5.77
		c0.73-1.82,1.74-3.41,3.04-4.77c1.3-1.36,2.84-2.44,4.62-3.24c1.78-0.8,3.74-1.21,5.88-1.21c2.26,0,4.27,0.37,6.03,1.12
		c1.76,0.75,3.23,1.78,4.42,3.1c1.19,1.32,2.09,2.88,2.7,4.68c0.61,1.8,0.92,3.75,0.92,5.86c0,0.27,0,0.5,0,0.69
		c-0.04,0.23-0.06,0.44-0.06,0.63c-0.04,0.19-0.06,0.4-0.06,0.63H67.91c0.15,1.15,0.47,2.13,0.95,2.96
		c0.48,0.82,1.07,1.51,1.78,2.07c0.71,0.56,1.48,0.96,2.32,1.21c0.84,0.25,1.7,0.37,2.58,0.37c1.72,0,3.15-0.39,4.28-1.18
		c1.13-0.78,2.02-1.77,2.67-2.96L88.75,41.24z M81.92,30.33c-0.04-0.5-0.2-1.05-0.49-1.67c-0.29-0.61-0.71-1.19-1.26-1.72
		c-0.56-0.54-1.24-0.98-2.07-1.32c-0.82-0.34-1.81-0.52-2.96-0.52c-1.61,0-3.02,0.46-4.25,1.38c-1.23,0.92-2.09,2.2-2.58,3.85H81.92
		z"/>
	<path class="st0" d="M113.44,14.79v4.46v4.02l0,0c-0.69-1.19-1.76-2.2-3.21-3.04c-1.46-0.84-3.25-1.26-5.4-1.26
		c-1.8,0-3.51,0.37-5.14,1.12c-1.63,0.75-3.06,1.78-4.31,3.1c-1.24,1.32-2.23,2.9-2.96,4.74c-0.73,1.84-1.09,3.85-1.09,6.03
		c0,2.18,0.36,4.19,1.09,6.03c0.73,1.84,1.71,3.42,2.96,4.74c1.24,1.32,2.68,2.35,4.31,3.1c1.63,0.75,3.34,1.12,5.14,1.12
		c2.14,0,3.94-0.42,5.4-1.26c1.45-0.84,2.53-1.86,3.21-3.04h0.46v3.39h7.06V14.79C118.45,14.79,115.94,14.79,113.44,14.79z
		 M113.27,37.34c-0.42,1-0.98,1.84-1.67,2.53c-0.69,0.69-1.48,1.22-2.38,1.58c-0.9,0.36-1.85,0.55-2.84,0.55
		c-1,0-1.94-0.19-2.84-0.57c-0.9-0.38-1.69-0.92-2.38-1.61c-0.69-0.69-1.24-1.53-1.66-2.53c-0.42-0.99-0.63-2.1-0.63-3.33
		c0-1.22,0.21-2.33,0.63-3.33c0.42-0.99,0.98-1.84,1.66-2.53c0.69-0.69,1.48-1.22,2.38-1.61c0.9-0.38,1.85-0.57,2.84-0.57
		c1,0,1.94,0.18,2.84,0.55c0.9,0.36,1.69,0.89,2.38,1.58c0.69,0.69,1.24,1.53,1.67,2.53c0.42,1,0.63,2.12,0.63,3.39
		C113.9,35.21,113.69,36.34,113.27,37.34z"/>
	<path class="st0" d="M138.44,18.97c2.18,0,4.18,0.37,6,1.12c1.82,0.75,3.39,1.78,4.71,3.1c1.32,1.32,2.35,2.9,3.1,4.74
		c0.75,1.84,1.12,3.85,1.12,6.03c0,2.18-0.37,4.19-1.12,6.03c-0.75,1.84-1.78,3.42-3.1,4.74c-1.32,1.32-2.89,2.35-4.71,3.1
		c-1.82,0.75-3.82,1.12-6,1.12c-2.18,0-4.18-0.37-6-1.12c-1.82-0.75-3.39-1.78-4.71-3.1c-1.32-1.32-2.35-2.9-3.1-4.74
		c-0.75-1.84-1.12-3.85-1.12-6.03c0-2.18,0.37-4.19,1.12-6.03c0.75-1.84,1.78-3.42,3.1-4.74c1.32-1.32,2.89-2.35,4.71-3.1
		C134.26,19.34,136.26,18.97,138.44,18.97z M138.44,41.99c0.96,0,1.88-0.18,2.78-0.55c0.9-0.36,1.69-0.89,2.38-1.58
		c0.69-0.69,1.23-1.53,1.64-2.53c0.4-1,0.6-2.12,0.6-3.39c0-1.26-0.2-2.39-0.6-3.39c-0.4-1-0.95-1.84-1.64-2.53
		c-0.69-0.69-1.48-1.21-2.38-1.58c-0.9-0.36-1.83-0.55-2.78-0.55c-1,0-1.93,0.18-2.81,0.55c-0.88,0.36-1.66,0.89-2.35,1.58
		c-0.69,0.69-1.23,1.53-1.64,2.53c-0.4,1-0.6,2.12-0.6,3.39c0,1.26,0.2,2.39,0.6,3.39c0.4,1,0.95,1.84,1.64,2.53
		c0.69,0.69,1.47,1.22,2.35,1.58C136.51,41.81,137.44,41.99,138.44,41.99z"/>
</g>
<circle class="st1" cx="155.8" cy="22.76" r="2.47"/>
<g>
	<path d="M155.01,21.46h0.87c0.51,0,0.94,0.18,0.94,0.76c0,0.56-0.42,0.8-0.94,0.8h-0.33v0.87h-0.55V21.46z M155.84,22.58
		c0.29,0,0.44-0.12,0.44-0.36c0-0.24-0.16-0.32-0.44-0.32h-0.28v0.68H155.84z M155.78,22.87l0.38-0.35l0.77,1.37h-0.61L155.78,22.87
		z"/>
</g>
</svg>
